# Blender 3.3.1
# www.blender.org
mtllib ChristmasStocking.mtl
g Cube_Mesh
v 0.874423 1.793651 -0.307241
v 0.750000 -1.804139 -0.263523
v 0.874423 1.793651 0.307241
v 0.750000 -1.804139 0.263523
v -0.874423 1.793651 -0.307241
v -1.023830 -2.103469 -0.347326
v -0.874423 1.793651 0.307241
v -1.023830 -2.103469 0.347326
v 0.833333 -0.450216 -0.349345
v -1.017157 -0.482119 0.395709
v 0.833333 -0.450216 0.349345
v -1.017157 -0.482119 -0.395709
v -1.873495 -2.029793 -0.257465
v -1.873495 -2.029793 0.257465
v -1.873495 -0.813381 -0.257465
v -1.873495 -0.813381 0.257465
v 0.000000 -2.072193 -0.359443
v 0.000000 1.926515 0.419073
v 0.000000 -2.072193 0.359443
v 0.000000 1.926514 -0.419073
v 0.000000 -0.477110 -0.539164
v -0.000000 -0.477110 0.539164
v 0.833333 -1.175920 -0.349345
v 0.833333 -1.175920 0.349345
v -1.040091 -1.344888 -0.520989
v -1.040091 -1.344889 0.520989
v -2.033788 -1.433281 -0.343287
v -2.033788 -1.433281 0.343287
v -0.000000 -1.307860 0.539164
v 0.000000 -1.307860 -0.539164
v -0.948540 1.316589 0.397641
v 0.948540 1.316589 -0.397641
v 0.948540 1.316589 0.397641
v -0.948540 1.316589 -0.397641
v 0.000000 1.375654 -0.613702
v 0.000000 1.375654 0.613702
v 0.856375 1.017189 -0.359004
v 0.856375 1.017189 0.359004
v -0.856375 1.017189 -0.359004
v 0.000000 1.059108 -0.554072
v 0.000000 1.059108 0.554072
v -0.856375 1.017189 0.359004
v 0.833333 0.143678 -0.349345
v 0.833333 0.143678 0.349345
v -0.833333 0.143678 -0.349345
v 0.000000 0.153448 -0.539164
v -0.000000 0.153448 0.539164
v -0.833333 0.143678 0.349345
v -1.019765 -2.217256 0.000000
v -0.502979 -2.110830 -0.354899
v 0.819059 -1.553433 -0.334686
v -0.952058 1.571770 0.389002
v 0.819059 -1.553433 0.334686
v -1.033993 -1.781072 -0.499281
v -0.546064 1.887086 0.396979
v 0.938295 1.829994 -0.000000
v 0.468364 -1.950593 0.340492
v -0.938295 1.829994 -0.000000
v 0.546064 1.887086 -0.396979
v 0.804784 -1.829696 -0.000000
v 0.833333 -0.180483 -0.349345
v -1.033319 -0.897678 0.508077
v 0.833333 -0.180483 0.349345
v -0.852277 -0.181102 -0.354313
v 0.479167 -0.464598 -0.510893
v 0.958333 -0.444706 -0.000000
v -1.150360 -0.391434 0.000000
v -0.498449 -0.479086 0.519436
v -1.929211 -2.074665 0.000000
v -1.989291 -1.804574 -0.328586
v -1.989291 -1.057981 0.328586
v -1.929211 -0.783884 -0.000000
v -1.543980 -0.675452 -0.334184
v -1.543980 -0.675452 0.334184
v -1.541182 -2.084777 -0.329091
v -1.541182 -2.084778 0.329091
v 0.468364 -1.950593 -0.340492
v 0.546064 1.887087 0.396979
v -0.502979 -2.110830 0.354899
v -0.546064 1.887086 -0.396979
v -0.498449 -0.479086 -0.519436
v 0.479167 -0.464598 0.510893
v -0.000000 -1.747351 0.516699
v -0.000000 -1.747351 -0.516699
v 0.000000 -0.184015 -0.539164
v 0.000000 -2.186843 0.000000
v 0.000000 -0.184015 0.539164
v 0.000000 2.031460 -0.000000
v 0.833333 -0.787520 -0.349345
v 0.833333 -0.787520 0.349345
v -1.033319 -0.897678 -0.508077
v -1.033993 -1.781072 0.499281
v -1.989291 -1.057981 -0.328586
v -1.989291 -1.804574 0.328586
v -0.000000 -0.860066 0.539164
v -0.000000 -0.860066 -0.539164
v -0.505011 -1.330457 -0.532348
v 0.479167 -1.243824 0.510893
v -1.599439 -1.387150 0.494232
v -1.599439 -1.387150 -0.494232
v -2.188856 -1.450822 0.000000
v -0.505011 -1.330457 0.532348
v 0.958333 -1.150214 -0.000000
v 0.479167 -1.243824 -0.510893
v -0.902457 1.193014 0.378323
v 0.952058 1.571770 -0.389002
v 0.952058 1.571770 0.389002
v -0.952058 1.571770 -0.389002
v 0.000000 1.647765 -0.600554
v 0.000000 1.647765 0.600554
v 0.545410 1.353505 0.581523
v -0.545410 1.353505 -0.581523
v 0.545410 1.353505 -0.581523
v 1.090821 1.301823 -0.000000
v -1.090821 1.301823 -0.000000
v -0.545410 1.353505 0.581523
v 0.902457 1.193014 -0.378323
v 0.902457 1.193014 0.378323
v -0.902457 1.193014 -0.378323
v 0.000000 1.244417 -0.583887
v -0.000000 1.244417 0.583887
v -0.836214 0.608314 0.350553
v -0.492415 1.043388 0.525019
v -0.984831 1.006709 -0.000000
v 0.984831 1.006709 0.000000
v 0.492415 1.043388 -0.525019
v -0.492415 1.043388 -0.525019
v 0.492415 1.043388 0.525019
v 0.836214 0.608314 -0.350553
v 0.836214 0.608314 0.350553
v -0.836214 0.608314 -0.350553
v -0.000000 0.634504 -0.541027
v 0.000000 0.634504 0.541027
v -0.852277 -0.181102 0.354313
v 0.479167 0.149784 0.510893
v -0.479167 0.149784 -0.510893
v 0.479167 0.149784 -0.510893
v 0.958333 0.141235 -0.000000
v -0.958333 0.141235 0.000000
v -0.479167 0.149784 0.510893
v -0.552362 1.985816 0.000000
v -0.553854 1.619914 0.569034
v -1.091516 1.559569 -0.000000
v 0.473765 -2.051815 0.000000
v 1.091516 1.559569 0.000000
v 0.553854 1.619914 -0.569034
v 0.479167 -0.825279 -0.510893
v 0.958333 -0.773175 0.000000
v -1.549646 -0.575289 0.000000
v -0.504081 -0.872463 0.530014
v -2.133294 -1.080170 0.000000
v -1.578608 -1.792441 -0.473540
v -1.578439 -0.978687 0.474813
v -1.536095 -2.187142 -0.000000
v 0.479167 -0.825279 0.510893
v -0.504081 -0.872463 -0.530014
v -0.553854 1.619914 -0.569034
v -0.502471 -2.227886 0.000000
v 0.553854 1.619914 0.569034
v 0.552362 1.985816 -0.000000
v -0.504249 -1.779171 -0.510167
v 0.476466 -1.653114 0.489580
v -1.578608 -1.792441 0.473540
v -1.578439 -0.978687 -0.474813
v -2.133294 -1.816060 0.000000
v -0.504249 -1.779171 0.510167
v 0.939043 -1.522659 0.000000
v 0.476466 -1.653114 -0.489580
v 0.518913 1.225140 0.553271
v -0.518913 1.225140 -0.553271
v 0.518913 1.225140 -0.553271
v 1.037826 1.180163 -0.000000
v -1.037826 1.180163 0.000000
v -0.518913 1.225140 0.553271
v -0.480823 0.624683 0.512659
v -0.961646 0.601767 -0.000000
v 0.961646 0.601767 0.000000
v 0.480823 0.624683 -0.512659
v -0.480823 0.624683 -0.512659
v 0.480823 0.624683 0.512659
v 0.479167 -0.182387 0.510893
v -0.482939 -0.184068 -0.512135
v 0.479167 -0.182387 -0.510893
v 0.958333 -0.179752 0.000000
v -0.981300 -0.174473 -0.000000
v -0.482939 -0.184068 0.512135
vn -0.0798 0.9670 -0.2420
vn -0.3455 0.9146 -0.2099
vn -0.3455 0.9146 0.2099
vn -0.0798 0.9670 0.2420
vn -0.0599 0.0465 0.9971
vn -0.0740 0.5428 0.8366
vn -0.3861 0.4772 0.7895
vn -0.4157 0.0273 0.9091
vn -0.9414 -0.0021 0.3372
vn -0.8553 0.4451 0.2652
vn -0.8553 0.4451 -0.2652
vn -0.9414 -0.0021 -0.3372
vn 0.2572 -0.9229 -0.2866
vn 0.5229 -0.8223 -0.2247
vn 0.5229 -0.8223 0.2247
vn 0.2572 -0.9229 0.2866
vn 0.9414 -0.0021 -0.3372
vn 0.8553 0.4451 -0.2652
vn 0.8553 0.4451 0.2652
vn 0.9414 -0.0021 0.3372
vn 0.0599 0.0465 -0.9971
vn 0.0740 0.5428 -0.8366
vn 0.3861 0.4772 -0.7895
vn 0.4157 0.0273 -0.9091
vn 0.0589 -0.0000 -0.9983
vn 0.4150 -0.0000 -0.9098
vn 0.9415 -0.0000 -0.3369
vn 0.9415 -0.0000 0.3369
vn -0.3768 0.8761 0.3008
vn -0.3768 0.8761 -0.3008
vn -0.4472 0.8629 -0.2355
vn -0.4472 0.8629 0.2355
vn -0.0159 0.0026 0.9999
vn -0.0290 0.0138 0.9995
vn -0.1401 0.1525 0.9783
vn -0.0319 0.0171 0.9993
vn -0.9087 0.1297 0.3968
vn -0.8091 0.5156 0.2821
vn -0.8091 0.5156 -0.2821
vn -0.9087 0.1297 -0.3968
vn -0.0449 -0.0517 -0.9977
vn -0.0402 -0.4365 -0.8988
vn -0.2748 -0.4379 -0.8560
vn -0.3253 -0.0703 -0.9430
vn -0.0586 0.0396 0.9975
vn -0.1683 0.3378 0.9260
vn -0.3726 0.4217 0.8266
vn -0.3400 0.0692 0.9379
vn -0.0503 -0.9515 -0.3034
vn -0.0503 -0.9515 0.3034
vn -0.2414 -0.9361 0.2558
vn -0.2414 -0.9361 -0.2558
vn 0.4150 -0.0000 0.9098
vn 0.0589 -0.0000 0.9983
vn -0.0319 0.0171 -0.9993
vn -0.1401 0.1525 -0.9783
vn -0.0290 0.0138 -0.9995
vn -0.0159 0.0026 -0.9999
vn -0.4157 0.0273 -0.9091
vn -0.3861 0.4772 -0.7895
vn -0.0740 0.5428 -0.8366
vn -0.0599 0.0465 -0.9971
vn -0.0187 -0.9499 -0.3121
vn 0.0738 -0.9486 -0.3077
vn 0.0738 -0.9486 0.3077
vn -0.0187 -0.9499 0.3121
vn 0.4157 0.0273 0.9091
vn 0.3861 0.4772 0.7895
vn 0.0740 0.5428 0.8366
vn 0.0599 0.0465 0.9971
vn 0.3455 0.9146 -0.2099
vn 0.0798 0.9670 -0.2420
vn 0.0798 0.9670 0.2420
vn 0.3455 0.9146 0.2099
vn -0.0181 -0.4253 -0.9049
vn -0.0201 -0.0497 -0.9986
vn -0.0105 -0.0502 -0.9987
vn 0.0201 -0.4297 -0.9027
vn 0.4512 -0.3867 0.8043
vn 0.4230 -0.0505 0.9047
vn 0.0663 -0.0516 0.9965
vn 0.1434 -0.4386 0.8872
vn -0.0402 -0.4365 0.8988
vn -0.0449 -0.0517 0.9977
vn -0.3253 -0.0703 0.9430
vn -0.2748 -0.4379 0.8560
vn -0.1683 0.3378 -0.9260
vn -0.0586 0.0396 -0.9975
vn -0.3400 0.0692 -0.9379
vn -0.3726 0.4217 -0.8266
vn -0.7695 -0.5552 0.3156
vn -0.9036 -0.1309 0.4079
vn -0.9036 -0.1309 -0.4079
vn -0.7695 -0.5552 -0.3156
vn 0.0201 -0.4297 0.9027
vn -0.0105 -0.0502 0.9987
vn -0.0201 -0.0497 0.9986
vn -0.0181 -0.4253 0.9049
vn 0.8964 -0.3598 -0.2588
vn 0.9416 -0.0487 -0.3332
vn 0.9416 -0.0487 0.3332
vn 0.8964 -0.3598 0.2588
vn 0.1434 -0.4386 -0.8872
vn 0.0663 -0.0516 -0.9965
vn 0.4230 -0.0505 -0.9047
vn 0.4512 -0.3867 -0.8043
vn 0.3938 -0.1993 0.8973
vn 0.3787 -0.2759 0.8834
vn 0.0488 -0.2228 0.9737
vn 0.0526 -0.1597 0.9858
vn -0.3938 -0.1993 -0.8973
vn -0.3787 -0.2759 -0.8834
vn -0.0488 -0.2228 -0.9737
vn -0.0526 -0.1597 -0.9858
vn 0.0526 -0.1597 -0.9858
vn 0.0488 -0.2228 -0.9737
vn 0.3787 -0.2759 -0.8834
vn 0.3938 -0.1993 -0.8973
vn 0.9026 -0.2744 -0.3317
vn 0.8680 -0.3762 -0.3240
vn 0.8680 -0.3762 0.3240
vn 0.9026 -0.2744 0.3317
vn -0.9026 -0.2744 0.3317
vn -0.8680 -0.3762 0.3240
vn -0.8680 -0.3762 -0.3240
vn -0.9026 -0.2744 -0.3317
vn -0.0526 -0.1597 0.9858
vn -0.0488 -0.2228 0.9737
vn -0.3787 -0.2759 0.8834
vn -0.3938 -0.1993 0.8973
vn -0.0588 -0.0039 0.9983
vn -0.0581 -0.0309 0.9978
vn -0.4128 -0.0387 0.9100
vn -0.4149 -0.0049 0.9099
vn -0.9415 -0.0067 0.3370
vn -0.9398 -0.0536 0.3376
vn -0.9398 -0.0536 -0.3376
vn -0.9415 -0.0067 -0.3370
vn 0.9415 -0.0067 -0.3370
vn 0.9398 -0.0536 -0.3376
vn 0.9398 -0.0536 0.3376
vn 0.9415 -0.0067 0.3370
vn 0.0588 -0.0039 -0.9983
vn 0.0581 -0.0309 -0.9978
vn 0.4128 -0.0387 -0.9100
vn 0.4149 -0.0049 -0.9099
vn -0.4149 -0.0049 -0.9099
vn -0.4128 -0.0387 -0.9100
vn -0.0581 -0.0309 -0.9978
vn -0.0588 -0.0039 -0.9983
vn 0.4149 -0.0049 0.9099
vn 0.4128 -0.0387 0.9100
vn 0.0581 -0.0309 0.9978
vn 0.0588 -0.0039 0.9983
vn -0.2980 0.1670 -0.9399
vn -0.4038 0.0225 -0.9146
vn -0.0574 0.0022 -0.9983
vn -0.0476 0.0137 -0.9988
vn -0.7776 0.5286 0.3405
vn -0.9385 0.0640 0.3392
vn -0.9385 0.0640 -0.3392
vn -0.7776 0.5286 -0.3405
vn -0.0476 0.0137 0.9988
vn -0.0574 0.0022 0.9983
vn -0.4038 0.0225 0.9146
vn -0.2980 0.1670 0.9399
vt 0.625000 0.500000
vt 0.375000 0.500000
vt 0.625000 0.750000
vt 0.375000 0.750000
vt 0.875000 0.500000
vt 0.625000 0.250000
vt 0.145833 0.500000
vt 0.375000 0.270833
vt 0.875000 0.750000
vt 0.625000 1.000000
vt 0.625000 0.000000
vt 0.145833 0.750000
vt 0.375000 0.979167
vt 0.470926 0.520833
vt 0.479268 0.000000
vt 0.479268 1.000000
vt 0.470926 0.729167
vt 0.472096 0.235000
vt 0.125000 0.500000
vt 0.375000 0.250000
vt 0.125000 0.750000
vt 0.375000 1.000000
vt 0.375000 0.000000
vt 0.462591 0.187500
vt 0.475104 0.000000
vt 0.475104 1.000000
vt 0.250000 0.500000
vt 0.375000 0.375000
vt 0.625000 0.875000
vt 0.750000 0.750000
vt 0.250000 0.750000
vt 0.375000 0.875000
vt 0.625000 0.375000
vt 0.750000 0.500000
vt 0.470926 0.375000
vt 0.470926 0.875000
vt 0.425052 0.520833
vt 0.425052 0.729167
vt 0.425052 0.270833
vt 0.425052 0.979167
vt 0.425052 0.208333
vt 0.425052 1.000000
vt 0.425052 0.000000
vt 0.425052 0.875000
vt 0.425052 0.375000
vt 0.587376 0.000000
vt 0.587376 1.000000
vt 0.587376 0.520833
vt 0.587376 0.729167
vt 0.587376 0.229167
vt 0.587376 0.375000
vt 0.587376 0.875000
vt 0.566557 0.520833
vt 0.566557 0.729167
vt 0.566557 0.229167
vt 0.566557 0.375000
vt 0.566557 0.875000
vt 0.566557 1.000000
vt 0.566557 0.000000
vt 0.509219 0.520833
vt 0.509219 0.729167
vt 0.509219 0.229167
vt 0.509219 0.375000
vt 0.509219 0.875000
vt 0.509219 0.000000
vt 0.509219 1.000000
vt 0.145833 0.625000
vt 0.190104 0.500000
vt 0.375000 0.315104
vt 0.399766 0.519097
vt 0.603366 1.000000
vt 0.603366 0.000000
vt 0.399766 0.730903
vt 0.400026 0.270833
vt 0.812500 0.750000
vt 0.625000 0.937500
vt 0.636090 0.625000
vt 0.312500 0.750000
vt 0.375000 0.812500
vt 0.875000 0.625000
vt 0.625000 0.125000
vt 0.625000 0.437500
vt 0.687500 0.500000
vt 0.364591 0.625000
vt 0.488215 0.520833
vt 0.450338 0.980903
vt 0.488215 0.729167
vt 0.488515 0.229792
vt 0.470926 0.440104
vt 0.470926 0.625000
vt 0.478524 0.122587
vt 0.471621 0.937066
vt 0.125000 0.625000
vt 0.375000 0.125000
vt 0.400026 0.211806
vt 0.450078 0.000000
vt 0.450078 1.000000
vt 0.466742 0.117091
vt 0.466606 0.207560
vt 0.475624 0.000000
vt 0.475624 1.000000
vt 0.375000 0.252604
vt 0.127604 0.500000
vt 0.127604 0.750000
vt 0.375000 0.997396
vt 0.312500 0.500000
vt 0.375000 0.437500
vt 0.625000 0.812500
vt 0.687500 0.750000
vt 0.190104 0.750000
vt 0.375000 0.934896
vt 0.812500 0.500000
vt 0.625000 0.312500
vt 0.471051 0.311389
vt 0.470926 0.809896
vt 0.400026 0.875000
vt 0.400026 0.375000
vt 0.488215 0.375000
vt 0.250000 0.625000
vt 0.488215 0.875000
vt 0.750000 0.625000
vt 0.449556 0.520833
vt 0.449556 0.729167
vt 0.449594 0.267118
vt 0.400026 0.979167
vt 0.448494 0.204765
vt 0.400026 1.000000
vt 0.400026 0.000000
vt 0.449556 0.875000
vt 0.449556 0.375000
vt 0.425052 0.315104
vt 0.425052 0.809896
vt 0.425052 0.997396
vt 0.425052 0.247396
vt 0.425052 0.119792
vt 0.425052 0.934896
vt 0.425052 0.625000
vt 0.425052 0.440104
vt 0.579130 0.000000
vt 0.579130 1.000000
vt 0.603643 0.519097
vt 0.603643 0.730903
vt 0.603366 0.230903
vt 0.603366 0.375000
vt 0.603366 0.875000
vt 0.587376 0.809896
vt 0.587376 0.309896
vt 0.587376 0.440104
vt 0.587376 0.625000
vt 0.587376 0.122396
vt 0.587376 0.937500
vt 0.579130 0.520833
vt 0.579130 0.729167
vt 0.579130 0.229167
vt 0.579130 0.375000
vt 0.579130 0.875000
vt 0.539449 1.000000
vt 0.539449 0.000000
vt 0.566557 0.937500
vt 0.566557 0.122396
vt 0.566557 0.625000
vt 0.566557 0.440104
vt 0.566557 0.309896
vt 0.566557 0.809896
vt 0.539449 0.520833
vt 0.539449 0.729167
vt 0.539449 0.229167
vt 0.539449 0.375000
vt 0.539449 0.875000
vt 0.489258 0.000000
vt 0.489258 1.000000
vt 0.509219 0.809896
vt 0.509219 0.309896
vt 0.509219 0.440104
vt 0.509219 0.625000
vt 0.509219 0.122396
vt 0.509219 0.937500
vt 0.812500 0.625000
vt 0.603366 0.937500
vt 0.603366 0.122830
vt 0.311459 0.625000
vt 0.604475 0.625000
vt 0.603366 0.439670
vt 0.449556 0.440104
vt 0.449556 0.625000
vt 0.473783 0.119707
vt 0.449729 0.935330
vt 0.449074 0.119117
vt 0.400026 0.248264
vt 0.450165 0.997830
vt 0.127604 0.625000
vt 0.449556 0.809896
vt 0.449587 0.314392
vt 0.603366 0.310330
vt 0.190104 0.625000
vt 0.603366 0.810330
vt 0.688609 0.625000
vt 0.400026 0.315104
vt 0.400026 0.810330
vt 0.400026 0.997396
vt 0.449018 0.242537
vt 0.400026 0.120660
vt 0.400026 0.934896
vt 0.398985 0.625000
vt 0.400026 0.439670
vt 0.579130 0.809896
vt 0.579130 0.309896
vt 0.579130 0.440104
vt 0.579130 0.625000
vt 0.579130 0.122396
vt 0.579129 0.937500
vt 0.539449 0.937500
vt 0.539449 0.122396
vt 0.539449 0.625000
vt 0.539449 0.440104
vt 0.539449 0.309896
vt 0.539449 0.809896
vt 0.488215 0.809896
vt 0.488247 0.310052
vt 0.488215 0.440104
vt 0.488215 0.625000
vt 0.489116 0.122552
vt 0.488389 0.937500
s 0
g off
g Cube_Material
usemtl Material
f 20/34/1 80/112/1 141/178/1 88/121/1
f 80/112/2 5/5/2 58/80/2 141/178/2
f 141/178/3 58/80/3 7/9/3 55/75/3
f 88/121/4 141/178/4 55/75/4 18/30/4
f 36/52/5 110/145/5 142/179/5 116/151/5
f 110/145/6 18/29/6 55/76/6 142/179/6
f 142/179/7 55/76/7 7/10/7 52/71/7
f 116/151/8 142/179/8 52/71/8 31/47/8
f 31/46/9 52/72/9 143/180/9 115/150/9
f 52/72/10 7/11/10 58/81/10 143/180/10
f 143/180/11 58/81/11 5/6/11 108/143/11
f 115/150/12 143/180/12 108/143/12 34/50/12
f 32/48/17 106/141/17 145/182/17 114/149/17
f 106/141/18 1/1/18 56/77/18 145/182/18
f 145/182/19 56/77/19 3/3/19 107/142/19
f 114/149/20 145/182/20 107/142/20 33/49/20
f 35/51/21 109/144/21 146/183/21 113/148/21
f 109/144/22 20/33/22 59/82/22 146/183/22
f 146/183/23 59/82/23 1/1/23 106/141/23
f 113/148/24 146/183/24 106/141/24 32/48/24
f 34/50/59 108/143/59 157/194/59 112/147/59
f 108/143/60 5/6/60 80/113/60 157/194/60
f 157/194/61 80/113/61 20/33/61 109/144/61
f 112/147/62 157/194/62 109/144/62 35/51/62
f 33/49/67 107/142/67 159/196/67 111/146/67
f 107/142/68 3/3/68 78/108/68 159/196/68
f 159/196/69 78/108/69 18/29/69 110/145/69
f 111/146/70 159/196/70 110/145/70 36/52/70
f 1/1/71 59/83/71 160/197/71 56/77/71
f 59/83/72 20/34/72 88/121/72 160/197/72
f 160/197/73 88/121/73 18/30/73 78/109/73
f 56/77/74 160/197/74 78/109/74 3/3/74
f 38/54/107 118/153/107 169/206/107 128/164/107
f 118/153/108 33/49/108 111/146/108 169/206/108
f 169/206/109 111/146/109 36/52/109 121/156/109
f 128/164/110 169/206/110 121/156/110 41/57/110
f 39/55/111 119/154/111 170/207/111 127/163/111
f 119/154/112 34/50/112 112/147/112 170/207/112
f 170/207/113 112/147/113 35/51/113 120/155/113
f 127/163/114 170/207/114 120/155/114 40/56/114
f 40/56/115 120/155/115 171/208/115 126/162/115
f 120/155/116 35/51/116 113/148/116 171/208/116
f 171/208/117 113/148/117 32/48/117 117/152/117
f 126/162/118 171/208/118 117/152/118 37/53/118
f 37/53/119 117/152/119 172/209/119 125/161/119
f 117/152/120 32/48/120 114/149/120 172/209/120
f 172/209/121 114/149/121 33/49/121 118/153/121
f 125/161/122 172/209/122 118/153/122 38/54/122
f 42/59/123 105/139/123 173/210/123 124/160/123
f 105/139/124 31/46/124 115/150/124 173/210/124
f 173/210/125 115/150/125 34/50/125 119/154/125
f 124/160/126 173/210/126 119/154/126 39/55/126
f 41/57/127 121/156/127 174/211/127 123/159/127
f 121/156/128 36/52/128 116/151/128 174/211/128
f 174/211/129 116/151/129 31/47/129 105/140/129
f 123/159/130 174/211/130 105/140/130 42/58/130
g Cube_Material.001
usemtl Material.001
f 17/27/13 77/106/13 144/181/13 86/119/13
f 77/106/14 2/2/14 60/84/14 144/181/14
f 144/181/15 60/84/15 4/4/15 57/78/15
f 86/119/16 144/181/16 57/78/16 19/31/16
f 30/45/25 96/130/25 147/184/25 104/138/25
f 96/130/25 21/35/25 65/89/25 147/184/25
f 147/184/26 65/89/26 9/14/26 89/122/26
f 104/138/26 147/184/26 89/122/26 23/37/26
f 23/37/27 89/122/27 148/185/27 103/137/27
f 89/122/27 9/14/27 66/90/27 148/185/27
f 148/185/28 66/90/28 11/17/28 90/123/28
f 103/137/28 148/185/28 90/123/28 24/38/28
f 10/15/29 67/91/29 149/186/29 74/100/29
f 67/91/30 12/18/30 73/99/30 149/186/30
f 149/186/31 73/99/31 15/24/31 72/98/31
f 74/100/32 149/186/32 72/98/32 16/25/32
f 29/44/33 95/129/33 150/187/33 102/136/33
f 95/129/34 22/36/34 68/92/34 150/187/34
f 150/187/35 68/92/35 10/16/35 62/86/35
f 102/136/36 150/187/36 62/86/36 26/40/36
f 28/43/37 71/96/37 151/188/37 101/135/37
f 71/96/38 16/25/38 72/98/38 151/188/38
f 151/188/39 72/98/39 15/24/39 93/126/39
f 101/135/40 151/188/40 93/126/40 27/41/40
f 25/39/41 54/74/41 152/189/41 100/134/41
f 54/74/42 6/8/42 75/102/42 152/189/42
f 152/189/43 75/102/43 13/20/43 70/95/43
f 100/134/44 152/189/44 70/95/44 27/41/44
f 26/40/45 62/86/45 153/190/45 99/133/45
f 62/86/46 10/16/46 74/101/46 153/190/46
f 153/190/47 74/101/47 16/26/47 71/97/47
f 99/133/48 153/190/48 71/97/48 28/42/48
f 6/7/49 49/67/49 154/191/49 75/103/49
f 49/67/50 8/12/50 76/104/50 154/191/50
f 154/191/51 76/104/51 14/21/51 69/93/51
f 75/103/52 154/191/52 69/93/52 13/19/52
f 24/38/53 90/123/53 155/192/53 98/132/53
f 90/123/53 11/17/53 82/115/53 155/192/53
f 155/192/54 82/115/54 22/36/54 95/129/54
f 98/132/54 155/192/54 95/129/54 29/44/54
f 25/39/55 91/124/55 156/193/55 97/131/55
f 91/124/56 12/18/56 81/114/56 156/193/56
f 156/193/57 81/114/57 21/35/57 96/130/57
f 97/131/58 156/193/58 96/130/58 30/45/58
f 6/7/63 50/68/63 158/195/63 49/67/63
f 50/68/64 17/27/64 86/119/64 158/195/64
f 158/195/65 86/119/65 19/31/65 79/110/65
f 49/67/66 158/195/66 79/110/66 8/12/66
f 6/8/75 54/74/75 161/198/75 50/69/75
f 54/74/76 25/39/76 97/131/76 161/198/76
f 161/198/77 97/131/77 30/45/77 84/117/77
f 50/69/78 161/198/78 84/117/78 17/28/78
f 4/4/79 53/73/79 162/199/79 57/79/79
f 53/73/80 24/38/80 98/132/80 162/199/80
f 162/199/81 98/132/81 29/44/81 83/116/81
f 57/79/82 162/199/82 83/116/82 19/32/82
f 8/13/83 92/125/83 163/200/83 76/105/83
f 92/125/84 26/40/84 99/133/84 163/200/84
f 163/200/85 99/133/85 28/42/85 94/127/85
f 76/105/86 163/200/86 94/127/86 14/22/86
f 12/18/87 91/124/87 164/201/87 73/99/87
f 91/124/88 25/39/88 100/134/88 164/201/88
f 164/201/89 100/134/89 27/41/89 93/126/89
f 73/99/90 164/201/90 93/126/90 15/24/90
f 14/23/91 94/128/91 165/202/91 69/94/91
f 94/128/92 28/43/92 101/135/92 165/202/92
f 165/202/93 101/135/93 27/41/93 70/95/93
f 69/94/94 165/202/94 70/95/94 13/20/94
f 19/32/95 83/116/95 166/203/95 79/111/95
f 83/116/96 29/44/96 102/136/96 166/203/96
f 166/203/97 102/136/97 26/40/97 92/125/97
f 79/111/98 166/203/98 92/125/98 8/13/98
f 2/2/99 51/70/99 167/204/99 60/84/99
f 51/70/100 23/37/100 103/137/100 167/204/100
f 167/204/101 103/137/101 24/38/101 53/73/101
f 60/84/102 167/204/102 53/73/102 4/4/102
f 17/28/103 84/117/103 168/205/103 77/107/103
f 84/117/104 30/45/104 104/138/104 168/205/104
f 168/205/105 104/138/105 23/37/105 51/70/105
f 77/107/106 168/205/106 51/70/106 2/2/106
f 47/64/131 133/169/131 175/212/131 140/177/131
f 133/169/132 41/57/132 123/159/132 175/212/132
f 175/212/133 123/159/133 42/58/133 122/157/133
f 140/177/134 175/212/134 122/157/134 48/66/134
f 48/65/135 122/158/135 176/213/135 139/176/135
f 122/158/136 42/59/136 124/160/136 176/213/136
f 176/213/137 124/160/137 39/55/137 131/167/137
f 139/176/138 176/213/138 131/167/138 45/62/138
f 43/60/139 129/165/139 177/214/139 138/175/139
f 129/165/140 37/53/140 125/161/140 177/214/140
f 177/214/141 125/161/141 38/54/141 130/166/141
f 138/175/142 177/214/142 130/166/142 44/61/142
f 46/63/143 132/168/143 178/215/143 137/174/143
f 132/168/144 40/56/144 126/162/144 178/215/144
f 178/215/145 126/162/145 37/53/145 129/165/145
f 137/174/146 178/215/146 129/165/146 43/60/146
f 45/62/147 131/167/147 179/216/147 136/173/147
f 131/167/148 39/55/148 127/163/148 179/216/148
f 179/216/149 127/163/149 40/56/149 132/168/149
f 136/173/150 179/216/150 132/168/150 46/63/150
f 44/61/151 130/166/151 180/217/151 135/172/151
f 130/166/152 38/54/152 128/164/152 180/217/152
f 180/217/153 128/164/153 41/57/153 133/169/153
f 135/172/154 180/217/154 133/169/154 47/64/154
f 11/17/53 63/87/53 181/218/53 82/115/53
f 63/87/53 44/61/53 135/172/53 181/218/53
f 181/218/54 135/172/54 47/64/54 87/120/54
f 82/115/54 181/218/54 87/120/54 22/36/54
f 12/18/155 64/88/155 182/219/155 81/114/155
f 64/88/156 45/62/156 136/173/156 182/219/156
f 182/219/157 136/173/157 46/63/157 85/118/157
f 81/114/158 182/219/158 85/118/158 21/35/158
f 21/35/25 85/118/25 183/220/25 65/89/25
f 85/118/25 46/63/25 137/174/25 183/220/25
f 183/220/26 137/174/26 43/60/26 61/85/26
f 65/89/26 183/220/26 61/85/26 9/14/26
f 9/14/27 61/85/27 184/221/27 66/90/27
f 61/85/27 43/60/27 138/175/27 184/221/27
f 184/221/28 138/175/28 44/61/28 63/87/28
f 66/90/28 184/221/28 63/87/28 11/17/28
f 10/15/159 134/170/159 185/222/159 67/91/159
f 134/170/160 48/65/160 139/176/160 185/222/160
f 185/222/161 139/176/161 45/62/161 64/88/161
f 67/91/162 185/222/162 64/88/162 12/18/162
f 22/36/163 87/120/163 186/223/163 68/92/163
f 87/120/164 47/64/164 140/177/164 186/223/164
f 186/223/165 140/177/165 48/66/165 134/171/165
f 68/92/166 186/223/166 134/171/166 10/16/166
