# Blender 3.3.1
# www.blender.org
mtllib ChristmasSled.mtl
g Cube_Cube
v 1.460134 1.000000 -2.134267
v 1.460134 -0.532302 -1.348110
v 1.391860 1.000000 2.045493
v 1.460134 -0.532302 2.134267
v -1.460134 1.000000 -2.134267
v -1.460134 -0.532302 -1.348110
v -1.391861 1.000000 2.045493
v -1.460134 -0.532302 2.134267
v -1.460134 -0.532302 -0.213427
v 1.404631 1.000000 -0.213427
v -1.420521 1.000000 -0.213427
v 1.460134 -0.532302 -0.213427
v 1.522656 0.000000 -1.981499
v -1.522248 0.000000 2.637992
v 1.522656 0.000000 2.637992
v -1.522248 0.000000 -1.981499
v 1.522656 0.000000 -0.232405
v -1.522248 0.000000 -0.232405
v -1.420521 1.570742 -0.698605
v -1.460134 1.570742 -2.134267
v 1.460134 1.570742 -2.134267
v 1.404631 1.570742 -0.698605
v -1.460134 -0.532302 1.837817
v 1.404630 1.000000 1.926591
v -1.420521 1.000000 1.926591
v 1.460134 -0.532302 1.837818
v -1.522248 0.000000 2.275540
v 1.522656 0.000000 2.275540
v 1.229806 -0.532302 -1.348110
v 1.229806 1.000000 2.045493
v 1.229806 -0.532302 2.134267
v 1.229806 1.000000 -2.134267
v 1.229806 -0.532302 -0.213427
v 1.285309 1.000000 -0.213427
v 1.282498 0.000000 -1.981499
v 1.282498 0.000000 2.637992
v 1.229806 1.570742 -2.134267
v 1.285309 1.570742 -0.698605
v 1.229806 -0.532302 1.837818
v 1.285309 1.000000 1.926591
v -1.263309 -0.532302 -1.348110
v -1.263309 1.000000 2.045493
v -1.263309 -0.532302 -0.213427
v -1.317022 0.000000 2.637992
v -1.263309 -0.532302 1.837817
v -1.263309 -0.532302 2.134267
v -1.263309 1.000000 -2.134267
v -1.302921 1.000000 -0.213427
v -1.317022 0.000000 -1.981499
v -1.263309 1.570742 -2.134267
v -1.302921 1.570742 -0.698605
v -1.302921 1.000000 1.926591
v -1.460134 1.000000 -1.866242
v 1.460134 -0.532302 -1.189782
v -1.460134 -0.532302 -1.189783
v 1.460134 1.000000 -1.866242
v 1.522656 0.000000 -1.737439
v -1.522248 0.000000 -1.737439
v -1.420521 1.570742 -1.933942
v 1.404631 1.570742 -1.933942
v 1.285309 1.570742 -1.933942
v 1.229806 -0.532302 -1.189783
v -1.263309 -0.532302 -1.189783
v -1.302921 1.570742 -1.933942
v -1.263309 0.287751 -0.352727
v 1.229806 0.287751 -0.352727
v -1.263309 0.858492 -0.837905
v 1.229806 0.858492 -0.837905
v -1.263309 0.287751 1.698517
v 1.229806 0.287751 1.698517
v 1.229806 0.858492 -2.073242
v -1.263309 0.858492 -2.073242
v -1.460134 -1.033639 1.837817
v -1.460134 -1.033639 2.134267
v -1.263309 -1.033639 -1.348110
v -1.460134 -1.033639 -1.348110
v 1.229806 -1.033639 2.134267
v 1.460134 -1.033639 2.134267
v 1.460134 -1.033639 -1.189782
v 1.460134 -1.033639 -1.348110
v 1.460134 -1.033639 1.837818
v -1.263309 -1.033639 1.837817
v 1.229806 -1.033639 -1.348110
v 1.229806 -1.033639 1.837818
v -1.263309 -1.033639 2.134267
v -1.460134 -1.033639 -1.189783
v 1.229806 -1.033639 -1.189783
v -1.263309 -1.033639 -1.189783
v -1.534919 0.500000 2.451903
v 1.535411 0.500000 -2.121071
v 1.535411 0.500000 2.451903
v -1.534919 0.500000 -2.121071
v 1.535411 0.500000 -0.229448
v -1.534919 0.500000 -0.229448
v -1.534919 0.500000 2.113322
v 1.535411 0.500000 2.113322
v 1.293248 0.500000 -2.121071
v 1.293248 0.500000 2.451903
v -1.327980 0.500000 -2.121071
v -1.327980 0.500000 2.451903
v 1.535411 0.500000 -1.857123
v -1.534919 0.500000 -1.857123
v -1.528125 -1.011879 2.715014
v -1.528125 -1.092544 2.715014
v -1.528125 -1.011879 -1.883353
v -1.528125 -1.092544 -1.883353
v -1.221246 -1.011879 2.715014
v -1.221246 -1.092544 2.715014
v -1.221246 -1.011879 -1.883353
v -1.221246 -1.092544 -1.883353
v -1.528125 -1.012574 2.877669
v -1.528125 -1.091849 2.892584
v -1.221246 -1.091849 2.892584
v -1.221246 -1.012574 2.877669
v -1.528125 -0.985076 3.032356
v -1.528125 -1.057114 3.068652
v -1.221246 -1.057114 3.068652
v -1.221246 -0.985076 3.032356
v -1.528125 -0.928887 3.153723
v -1.528125 -0.976471 3.218858
v -1.221246 -0.976471 3.218858
v -1.221246 -0.928887 3.153723
v -1.528125 -0.835118 3.225689
v -1.528125 -0.855564 3.303720
v -1.221246 -0.855564 3.303720
v -1.221246 -0.835118 3.225689
v -1.528125 -0.738454 3.251018
v -1.528125 -0.758901 3.329049
v -1.221246 -0.758901 3.329049
v -1.221246 -0.738454 3.251018
v 1.199468 -1.011879 2.715014
v 1.199468 -1.092544 2.715014
v 1.199468 -1.011879 -1.883353
v 1.199468 -1.092544 -1.883353
v 1.506346 -1.011879 2.715014
v 1.506346 -1.092544 2.715014
v 1.506346 -1.011879 -1.883353
v 1.506346 -1.092544 -1.883353
v 1.199468 -1.012574 2.877669
v 1.199468 -1.091849 2.892584
v 1.506346 -1.091849 2.892584
v 1.506346 -1.012574 2.877669
v 1.199468 -0.985076 3.032356
v 1.199468 -1.057114 3.068652
v 1.506346 -1.057114 3.068652
v 1.506346 -0.985076 3.032356
v 1.199468 -0.928887 3.153723
v 1.199468 -0.976471 3.218858
v 1.506346 -0.976471 3.218858
v 1.506346 -0.928887 3.153723
v 1.199468 -0.835118 3.225689
v 1.199468 -0.855564 3.303720
v 1.506346 -0.855564 3.303720
v 1.506346 -0.835118 3.225689
v 1.199468 -0.738454 3.251018
v 1.199468 -0.758901 3.329049
v 1.506346 -0.758901 3.329049
v 1.506346 -0.738454 3.251018
vn -0.0000 1.0000 -0.0000
vn -0.0000 0.6307 0.7760
vn -0.9890 0.1479 -0.0000
vn 1.0000 -0.0000 -0.0000
vn 0.9599 0.2792 0.0268
vn -0.0000 -0.0264 -0.9997
vn 0.9793 0.2017 0.0166
vn -0.0000 -1.0000 -0.0000
vn -0.9748 0.2230 -0.0000
vn 0.9915 0.0552 0.1175
vn -0.9933 -0.1159 -0.0000
vn 0.9932 -0.1167 -0.0000
vn -0.0000 -0.7656 -0.6434
vn -0.0000 -0.6873 0.7263
vn -0.9991 0.0413 0.0137
vn -0.0000 -0.0000 -1.0000
vn -0.0000 0.6477 0.7619
vn -0.9575 0.2821 0.0600
vn 0.9675 0.2530 -0.0000
vn 0.9985 0.0555 -0.0000
vn -0.0000 0.3050 -0.9524
vn -0.0000 -0.0000 1.0000
vn -0.9957 0.0395 0.0842
vn 0.9981 0.0578 0.0192
vn 0.9889 0.1489 -0.0000
vn -0.9825 0.1858 0.0119
vn 0.9976 0.0451 0.0531
vn -0.0000 -0.1919 0.9814
vn -0.9970 0.0777 -0.0000
vn -0.9953 0.0631 0.0742
vn -1.0000 -0.0000 -0.0000
vn -0.9997 -0.0253 -0.0000
vn 0.9997 -0.0255 -0.0000
vn -0.0000 0.3488 0.9372
vn -0.0000 -0.2689 -0.9632
vn -0.0000 1.0000 -0.0039
vn -0.0000 0.9811 -0.1936
vn -0.0000 -1.0000 -0.0043
vn -0.0000 -0.9075 0.4201
vn -0.0000 -0.9846 0.1750
vn -0.0000 0.8811 -0.4730
vn -0.0000 0.2535 -0.9673
vn -0.0000 0.5745 -0.8185
vn -0.0000 -0.6088 0.7933
vn -0.0000 -0.9673 -0.2535
vn -0.0000 -0.2535 0.9673
vt 0.625000 0.500000
vt 0.375000 0.500000
vt 0.625000 0.750000
vt 0.375000 0.750000
vt 0.625000 0.250000
vt 0.375000 0.250000
vt 0.875000 0.750000
vt 0.625000 1.000000
vt 0.625000 0.000000
vt 0.375000 1.000000
vt 0.375000 0.000000
vt 0.125000 0.612500
vt 0.375000 0.137500
vt 0.625000 0.612500
vt 0.875000 0.612500
vt 0.625000 0.137500
vt 0.375000 0.612500
vt 0.500000 0.500000
vt 0.500000 0.000000
vt 0.500000 1.000000
vt 0.500000 0.750000
vt 0.500000 0.250000
vt 0.500000 0.612500
vt 0.500000 0.137500
vt 0.625000 0.137500
vt 0.875000 0.612500
vt 0.625000 0.250000
vt 0.875000 0.500000
vt 0.625000 0.500000
vt 0.625000 0.612500
vt 0.125000 0.732638
vt 0.375000 0.017362
vt 0.625000 0.732638
vt 0.625000 0.017362
vt 0.875000 0.732638
vt 0.375000 0.732638
vt 0.500000 0.017362
vt 0.500000 0.732637
vt 0.355282 0.500000
vt 0.375000 0.480282
vt 0.625000 0.769718
vt 0.644718 0.750000
vt 0.355282 0.750000
vt 0.375000 0.769718
vt 0.625000 0.480282
vt 0.355282 0.612500
vt 0.644718 0.612500
vt 0.500000 0.480282
vt 0.500000 0.769718
vt 0.625000 0.480282
vt 0.644718 0.500000
vt 0.644718 0.612500
vt 0.355282 0.732638
vt 0.644718 0.732638
vt 0.141850 0.500000
vt 0.375000 0.266850
vt 0.625000 0.983150
vt 0.858150 0.750000
vt 0.141850 0.612500
vt 0.500000 0.983150
vt 0.141850 0.732638
vt 0.141850 0.750000
vt 0.375000 0.983150
vt 0.625000 0.266850
vt 0.858150 0.612500
vt 0.500000 0.266850
vt 0.625000 0.266850
vt 0.858150 0.500000
vt 0.858150 0.612500
vt 0.858150 0.732638
vt 0.625000 0.234302
vt 0.375000 0.515698
vt 0.125000 0.515698
vt 0.375000 0.234302
vt 0.625000 0.515698
vt 0.500000 0.515698
vt 0.500000 0.234302
vt 0.625000 0.234302
vt 0.875000 0.515698
vt 0.625000 0.515698
vt 0.644718 0.515698
vt 0.355282 0.515698
vt 0.141850 0.515698
vt 0.858150 0.515698
vt 0.858150 0.612500
vt 0.644718 0.612500
vt 0.858150 0.612500
vt 0.644718 0.612500
vt 0.858150 0.732638
vt 0.644718 0.732638
vt 0.644718 0.515698
vt 0.858150 0.515698
vt 0.125000 0.732638
vt 0.375000 0.017362
vt 0.125000 0.750000
vt 0.375000 1.000000
vt 0.375000 0.000000
vt 0.141850 0.500000
vt 0.375000 0.266850
vt 0.125000 0.500000
vt 0.375000 0.250000
vt 0.355282 0.750000
vt 0.375000 0.769718
vt 0.375000 0.750000
vt 0.375000 0.515698
vt 0.375000 0.500000
vt 0.375000 0.732638
vt 0.141850 0.732638
vt 0.355282 0.500000
vt 0.375000 0.480282
vt 0.355282 0.732638
vt 0.141850 0.750000
vt 0.375000 0.983150
vt 0.125000 0.515698
vt 0.375000 0.234302
vt 0.355282 0.515698
vt 0.141850 0.515698
vt 0.562500 0.000000
vt 0.562500 1.000000
vt 0.562500 0.500000
vt 0.562500 0.750000
vt 0.562500 0.250000
vt 0.562500 0.612500
vt 0.562500 0.137500
vt 0.562500 0.017362
vt 0.562500 0.732638
vt 0.562500 0.480282
vt 0.562500 0.769718
vt 0.562500 0.266850
vt 0.562500 0.983150
vt 0.562500 0.515698
vt 0.562500 0.234302
vt 0.375000 0.000000
vt 0.125000 0.750000
vt 0.875000 0.750000
vt 0.625000 0.000000
vt 0.375000 0.250000
vt 0.125000 0.500000
vt 0.625000 0.250000
vt 0.875000 0.500000
vt 0.375000 0.750000
vt 0.625000 0.750000
vt 0.375000 0.500000
vt 0.625000 0.500000
vt 0.125000 0.750000
vt 0.375000 0.000000
vt 0.875000 0.750000
vt 0.625000 0.000000
vt 0.625000 0.750000
vt 0.375000 0.750000
vt 0.125000 0.750000
vt 0.375000 0.000000
vt 0.625000 0.000000
vt 0.875000 0.750000
vt 0.625000 0.750000
vt 0.375000 0.750000
vt 0.375000 0.000000
vt 0.125000 0.750000
vt 0.625000 0.000000
vt 0.875000 0.750000
vt 0.625000 0.750000
vt 0.375000 0.750000
vt 0.125000 0.750000
vt 0.375000 0.000000
vt 0.875000 0.750000
vt 0.625000 0.000000
vt 0.625000 0.750000
vt 0.375000 0.750000
vt 0.375000 1.000000
vt 0.125000 0.750000
vt 0.375000 0.000000
vt 0.875000 0.750000
vt 0.625000 1.000000
vt 0.625000 0.000000
vt 0.625000 0.750000
vt 0.375000 0.750000
vt 0.375000 0.000000
vt 0.125000 0.750000
vt 0.875000 0.750000
vt 0.625000 0.000000
vt 0.375000 0.250000
vt 0.125000 0.500000
vt 0.625000 0.250000
vt 0.875000 0.500000
vt 0.375000 0.750000
vt 0.625000 0.750000
vt 0.375000 0.500000
vt 0.625000 0.500000
vt 0.125000 0.750000
vt 0.375000 0.000000
vt 0.875000 0.750000
vt 0.625000 0.000000
vt 0.625000 0.750000
vt 0.375000 0.750000
vt 0.125000 0.750000
vt 0.375000 0.000000
vt 0.625000 0.000000
vt 0.875000 0.750000
vt 0.625000 0.750000
vt 0.375000 0.750000
vt 0.375000 0.000000
vt 0.125000 0.750000
vt 0.625000 0.000000
vt 0.875000 0.750000
vt 0.625000 0.750000
vt 0.375000 0.750000
vt 0.125000 0.750000
vt 0.375000 0.000000
vt 0.875000 0.750000
vt 0.625000 0.000000
vt 0.625000 0.750000
vt 0.375000 0.750000
vt 0.375000 1.000000
vt 0.125000 0.750000
vt 0.375000 0.000000
vt 0.875000 0.750000
vt 0.625000 1.000000
vt 0.625000 0.000000
vt 0.625000 0.750000
vt 0.375000 0.750000
s 0
g off
g Cube_Material.001
usemtl Material.001
f 52/70/1 25/35/1 7/7/1 42/58/1
f 100/130/2 42/57/2 7/8/2 89/119/2
f 102/132/3 53/71/3 5/5/3 92/122/3
f 2/2/4 54/72/4 79/105/4 80/106/4
f 96/126/5 24/33/5 3/3/5 91/121/5
f 97/127/6 32/45/6 1/1/6 90/120/6
f 101/131/7 56/75/7 10/14/7 93/123/7
f 62/82/8 54/72/8 12/17/8 33/46/8
f 95/125/9 25/34/9 11/16/9 94/124/9
f 56/75/10 1/1/10 21/29/10 60/80/10
f 23/32/11 27/37/11 18/24/11 9/13/11
f 54/72/12 57/76/12 17/23/12 12/17/12
f 29/40/13 35/48/13 13/18/13 2/2/13
f 26/36/12 28/38/12 15/21/12 4/4/12
f 55/74/11 58/77/11 16/22/11 6/6/11
f 46/63/14 44/60/14 14/20/14 8/10/14
f 64/84/1 59/79/1 19/26/1 51/69/1
f 53/71/15 11/16/15 19/25/15 59/78/15
f 47/64/16 5/5/16 20/27/16 50/67/16
f 34/47/17 10/14/17 22/30/17 38/52/17
f 12/17/12 17/23/12 28/38/12 26/36/12
f 8/11/11 14/19/11 27/37/11 23/32/11
f 89/118/18 7/9/18 25/34/18 95/125/18
f 93/123/19 10/14/19 24/33/19 96/126/19
f 33/46/8 12/17/8 26/36/8 39/53/8
f 48/65/1 11/15/1 25/35/1 52/70/1
f 10/14/1 34/47/1 40/54/1 24/33/1
f 43/59/8 33/46/8 39/53/8 45/61/8
f 48/65/20 52/70/20 69/89/20 65/85/20
f 1/1/16 32/45/16 37/50/16 21/29/16
f 60/80/1 61/81/1 38/52/1 22/30/1
f 4/4/14 15/21/14 36/49/14 31/44/14
f 41/56/13 49/66/13 35/48/13 29/40/13
f 63/83/8 62/82/8 33/46/8 43/59/8
f 99/129/6 47/64/6 32/45/6 97/127/6
f 45/61/8 39/53/8 31/43/8 46/62/8
f 91/121/2 3/3/2 30/41/2 98/128/2
f 24/33/1 40/54/1 30/42/1 3/3/1
f 39/53/16 26/36/16 81/107/16 84/111/16
f 92/122/6 5/5/6 47/64/6 99/129/6
f 55/73/8 63/83/8 43/59/8 9/12/8
f 6/6/13 16/22/13 49/66/13 41/56/13
f 11/15/17 48/65/17 51/69/17 19/26/17
f 9/12/8 43/59/8 45/61/8 23/31/8
f 52/70/21 40/54/21 70/90/21 69/89/21
f 32/45/16 47/64/16 50/67/16 37/50/16
f 64/84/20 51/69/20 67/87/20 72/92/20
f 31/44/14 36/49/14 44/60/14 46/63/14
f 98/128/2 30/41/2 42/57/2 100/130/2
f 40/54/1 52/70/1 42/58/1 30/42/1
f 37/51/1 50/68/1 64/84/1 61/81/1
f 54/72/22 62/82/22 87/116/22 79/105/22
f 41/55/8 29/39/8 62/82/8 63/83/8
f 21/29/1 37/51/1 61/81/1 60/80/1
f 5/5/23 53/71/23 59/78/23 20/27/23
f 50/68/1 20/28/1 59/79/1 64/84/1
f 9/13/11 18/24/11 58/77/11 55/74/11
f 2/2/12 13/18/12 57/76/12 54/72/12
f 10/14/24 56/75/24 60/80/24 22/30/24
f 63/83/22 55/73/22 86/114/22 88/117/22
f 90/120/25 1/1/25 56/75/25 101/131/25
f 94/124/26 11/16/26 53/71/26 102/132/26
f 65/85/17 66/86/17 68/88/17 67/87/17
f 66/86/1 65/85/1 69/89/1 70/90/1
f 71/91/1 72/92/1 67/87/1 68/88/1
f 51/69/27 48/65/27 65/85/27 67/87/27
f 61/81/28 64/84/28 72/92/28 71/91/28
f 38/52/29 61/81/29 71/91/29 68/88/29
f 34/47/30 38/52/30 68/88/30 66/86/30
f 40/54/29 34/47/29 66/86/29 70/90/29
f 84/111/8 81/107/8 78/104/8 77/102/8
f 73/93/8 82/108/8 85/112/8 74/95/8
f 76/100/8 75/98/8 88/117/8 86/114/8
f 83/109/8 80/106/8 79/105/8 87/116/8
f 62/82/31 29/39/31 83/109/31 87/116/31
f 23/31/16 45/61/16 82/108/16 73/93/16
f 55/74/31 6/6/31 76/101/31 86/115/31
f 26/36/4 4/4/4 78/104/4 81/107/4
f 41/55/4 63/83/4 88/117/4 75/98/4
f 31/43/31 39/53/31 84/111/31 77/102/31
f 45/61/4 46/62/4 85/112/4 82/108/4
f 46/63/22 8/10/22 74/96/22 85/113/22
f 8/11/31 23/32/31 73/94/31 74/97/31
f 29/40/16 2/2/16 80/106/16 83/110/16
f 4/4/22 31/44/22 77/103/22 78/104/22
f 6/6/16 41/56/16 75/99/16 76/101/16
f 18/24/32 94/124/32 102/132/32 58/77/32
f 13/18/33 90/120/33 101/131/33 57/76/33
f 36/49/34 98/128/34 100/130/34 44/60/34
f 16/22/35 92/122/35 99/129/35 49/66/35
f 15/21/34 91/121/34 98/128/34 36/49/34
f 49/66/35 99/129/35 97/127/35 35/48/35
f 17/23/33 93/123/33 96/126/33 28/38/33
f 14/19/32 89/118/32 95/125/32 27/37/32
f 27/37/32 95/125/32 94/124/32 18/24/32
f 57/76/33 101/131/33 93/123/33 17/23/33
f 35/48/35 97/127/35 90/120/35 13/18/35
f 28/38/33 96/126/33 91/121/33 15/21/33
f 58/77/32 102/132/32 92/122/32 16/22/32
f 44/60/34 100/130/34 89/119/34 14/20/34
f 103/133/4 104/136/4 106/139/4 105/137/4
f 105/137/22 106/139/22 110/144/22 109/143/22
f 109/143/31 110/144/31 108/142/31 107/141/31
f 108/142/36 104/135/36 112/147/36 113/149/36
f 105/138/8 109/143/8 107/141/8 103/134/8
f 110/144/1 106/140/1 104/135/1 108/142/1
f 113/149/37 112/147/37 116/154/37 117/155/37
f 107/141/31 108/142/31 113/149/31 114/150/31
f 104/136/4 103/133/4 111/146/4 112/148/4
f 103/134/38 107/141/38 114/150/38 111/145/38
f 115/151/39 118/156/39 122/162/39 119/158/39
f 114/150/31 113/149/31 117/155/31 118/156/31
f 111/145/40 114/150/40 118/156/40 115/151/40
f 112/148/4 111/146/4 115/152/4 116/153/4
f 120/159/4 119/157/4 123/164/4 124/166/4
f 116/153/4 115/152/4 119/157/4 120/159/4
f 117/155/41 116/154/41 120/160/41 121/161/41
f 118/156/31 117/155/31 121/161/31 122/162/31
f 125/167/42 124/165/42 128/172/42 129/175/42
f 121/161/43 120/160/43 124/165/43 125/167/43
f 122/162/31 121/161/31 125/167/31 126/168/31
f 119/158/44 122/162/44 126/168/44 123/163/44
f 130/176/45 129/175/45 128/173/45 127/169/45
f 126/168/31 125/167/31 129/175/31 130/176/31
f 123/163/46 126/168/46 130/176/46 127/170/46
f 124/166/4 123/164/4 127/171/4 128/174/4
f 131/177/4 132/180/4 134/183/4 133/181/4
f 133/181/22 134/183/22 138/188/22 137/187/22
f 137/187/31 138/188/31 136/186/31 135/185/31
f 136/186/36 132/179/36 140/191/36 141/193/36
f 133/182/8 137/187/8 135/185/8 131/178/8
f 138/188/1 134/184/1 132/179/1 136/186/1
f 141/193/37 140/191/37 144/198/37 145/199/37
f 135/185/31 136/186/31 141/193/31 142/194/31
f 132/180/4 131/177/4 139/190/4 140/192/4
f 131/178/38 135/185/38 142/194/38 139/189/38
f 143/195/39 146/200/39 150/206/39 147/202/39
f 142/194/31 141/193/31 145/199/31 146/200/31
f 139/189/40 142/194/40 146/200/40 143/195/40
f 140/192/4 139/190/4 143/196/4 144/197/4
f 148/203/4 147/201/4 151/208/4 152/210/4
f 144/197/4 143/196/4 147/201/4 148/203/4
f 145/199/41 144/198/41 148/204/41 149/205/41
f 146/200/31 145/199/31 149/205/31 150/206/31
f 153/211/42 152/209/42 156/216/42 157/219/42
f 149/205/43 148/204/43 152/209/43 153/211/43
f 150/206/31 149/205/31 153/211/31 154/212/31
f 147/202/44 150/206/44 154/212/44 151/207/44
f 158/220/45 157/219/45 156/217/45 155/213/45
f 154/212/31 153/211/31 157/219/31 158/220/31
f 151/207/46 154/212/46 158/220/46 155/214/46
f 152/210/4 151/208/4 155/215/4 156/218/4
