# Blender 3.3.1
# www.blender.org
mtllib Gifts.mtl
g Cube_Cube
v -0.324094 1.000000 -0.857525
v -0.324094 -1.000000 -0.857525
v -0.591137 1.000000 1.124567
v -0.591137 -1.000000 1.124567
v -2.306186 1.000000 -1.124567
v -2.306186 -1.000000 -1.124567
v -2.573229 1.000000 0.857525
v -2.573229 -1.000000 0.857525
v -2.414030 -1.000000 -0.324107
v -0.431938 1.000000 -0.057064
v -2.414030 1.000000 -0.324107
v -0.431938 -1.000000 -0.057064
v -2.466132 -1.000000 0.062609
v -0.484040 1.000000 0.329651
v -2.466132 1.000000 0.062609
v -0.484040 -1.000000 0.329651
v -1.119109 -1.000000 -0.964635
v -1.386152 1.000000 1.017457
v -1.386152 -1.000000 1.017457
v -1.119109 1.000000 -0.964635
v -1.226953 -1.000000 -0.164175
v -1.226953 1.000000 -0.164175
v -1.279055 -1.000000 0.222541
v -1.279055 1.000000 0.222541
v -1.511171 -1.000000 -1.017457
v -1.778214 1.000000 0.964635
v -1.619015 -1.000000 -0.216997
v -1.671117 -1.000000 0.169719
v -1.778214 -1.000000 0.964635
v -1.511171 1.000000 -1.017457
v -1.619015 1.000000 -0.216997
v -1.671117 1.000000 0.169719
vn -0.0000 1.0000 -0.0000
vn -0.1335 -0.0000 0.9910
vn -0.9910 -0.0000 -0.1335
vn -0.0000 -1.0000 -0.0000
vn 0.9910 -0.0000 0.1335
vn 0.1335 -0.0000 -0.9910
vt 0.625000 0.500000
vt 0.375000 0.500000
vt 0.625000 0.750000
vt 0.375000 0.750000
vt 0.875000 0.500000
vt 0.625000 0.250000
vt 0.375000 0.250000
vt 0.125000 0.500000
vt 0.875000 0.750000
vt 0.625000 1.000000
vt 0.625000 0.000000
vt 0.375000 1.000000
vt 0.375000 0.000000
vt 0.125000 0.750000
vt 0.375000 0.149038
vt 0.125000 0.600962
vt 0.625000 0.600962
vt 0.625000 0.149038
vt 0.875000 0.600962
vt 0.375000 0.600962
vt 0.375000 0.100262
vt 0.125000 0.649738
vt 0.625000 0.649738
vt 0.625000 0.100262
vt 0.875000 0.649738
vt 0.375000 0.649738
vt 0.274725 0.500000
vt 0.375000 0.399725
vt 0.625000 0.850275
vt 0.725275 0.750000
vt 0.274725 0.750000
vt 0.375000 0.850275
vt 0.625000 0.399725
vt 0.725275 0.500000
vt 0.274725 0.600962
vt 0.725275 0.600962
vt 0.274725 0.649738
vt 0.725275 0.649738
vt 0.375000 0.350275
vt 0.225275 0.500000
vt 0.625000 0.899725
vt 0.774725 0.750000
vt 0.225275 0.600962
vt 0.225275 0.649738
vt 0.225275 0.750000
vt 0.375000 0.899725
vt 0.625000 0.350275
vt 0.774725 0.500000
vt 0.774725 0.600962
vt 0.774725 0.649738
s 0
g off
g Cube_Material
usemtl Material
f 32/50/1 15/25/1 7/9/1 26/42/1
f 29/46/2 26/41/2 7/10/2 8/12/2
f 9/15/3 11/18/3 5/6/3 6/7/3
f 23/37/4 16/26/4 4/4/4 19/31/4
f 16/26/5 14/23/5 3/3/5 4/4/5
f 17/28/6 20/33/6 1/1/6 2/2/6
f 2/2/5 1/1/5 10/17/5 12/20/5
f 17/27/4 2/2/4 12/20/4 21/35/4
f 30/48/1 5/5/1 11/19/1 31/49/1
f 8/13/3 7/11/3 15/24/3 13/21/3
f 1/1/1 20/34/1 22/36/1 10/17/1
f 25/39/6 30/47/6 20/33/6 17/28/6
f 4/4/2 3/3/2 18/29/2 19/32/2
f 14/23/1 24/38/1 18/30/1 3/3/1
f 13/22/4 28/44/4 29/45/4 8/14/4
f 6/7/6 5/6/6 30/47/6 25/39/6
f 6/8/4 25/40/4 27/43/4 9/16/4
g Cube_Material.001
usemtl Material.001
f 13/21/3 15/24/3 11/18/3 9/15/3
f 12/20/5 10/17/5 14/23/5 16/26/5
f 21/35/4 12/20/4 16/26/4 23/37/4
f 31/49/1 11/19/1 15/25/1 32/50/1
f 10/17/1 22/36/1 24/38/1 14/23/1
f 27/43/4 21/35/4 23/37/4 28/44/4
f 25/40/4 17/27/4 21/35/4 27/43/4
f 28/44/4 23/37/4 19/31/4 29/45/4
f 9/16/4 27/43/4 28/44/4 13/22/4
f 22/36/1 31/49/1 32/50/1 24/38/1
f 20/34/1 30/48/1 31/49/1 22/36/1
f 19/32/2 18/29/2 26/41/2 29/46/2
f 24/38/1 32/50/1 26/42/1 18/30/1
g Cube.001_Cube.001
v 1.788061 1.000954 -1.222088
v 1.788061 -0.999046 -1.222088
v 2.111364 1.000954 0.751608
v 2.111364 -0.999046 0.751608
v -0.185635 1.000954 -0.898786
v -0.185635 -0.999046 -0.898786
v 0.137668 1.000954 1.074910
v 0.137668 -0.999046 1.074910
v -0.055070 -0.999046 -0.101716
v 1.918626 1.000954 -0.425019
v -0.055070 1.000954 -0.101716
v 1.918626 -0.999046 -0.425019
v 0.008008 -0.999046 0.283362
v 1.981704 1.000954 -0.039941
v 0.008008 1.000954 0.283362
v 1.981704 -0.999046 -0.039941
v 0.996414 -0.999046 -1.092412
v 1.319717 1.000954 0.881284
v 1.319717 -0.999046 0.881284
v 0.996414 1.000954 -1.092412
v 1.126979 -0.999046 -0.295342
v 1.126979 1.000954 -0.295342
v 1.190056 -0.999046 0.089735
v 1.190056 1.000954 0.089735
v 0.606013 -0.999046 -1.028462
v 0.929315 1.000954 0.945234
v 0.736577 -0.999046 -0.231392
v 0.799655 -0.999046 0.153685
v 0.929315 -0.999046 0.945234
v 0.606013 1.000954 -1.028462
v 0.736577 1.000954 -0.231392
v 0.799655 1.000954 0.153685
vn -0.0000 1.0000 -0.0000
vn 0.1617 -0.0000 0.9868
vn -0.9868 -0.0000 0.1617
vn -0.0000 -1.0000 -0.0000
vn 0.9868 -0.0000 -0.1617
vn -0.1617 -0.0000 -0.9868
vt 0.625000 0.500000
vt 0.375000 0.500000
vt 0.625000 0.750000
vt 0.375000 0.750000
vt 0.875000 0.500000
vt 0.625000 0.250000
vt 0.375000 0.250000
vt 0.125000 0.500000
vt 0.875000 0.750000
vt 0.625000 1.000000
vt 0.625000 0.000000
vt 0.375000 1.000000
vt 0.375000 0.000000
vt 0.125000 0.750000
vt 0.375000 0.149038
vt 0.125000 0.600962
vt 0.625000 0.600962
vt 0.625000 0.149038
vt 0.875000 0.600962
vt 0.375000 0.600962
vt 0.375000 0.100262
vt 0.125000 0.649738
vt 0.625000 0.649738
vt 0.625000 0.100262
vt 0.875000 0.649738
vt 0.375000 0.649738
vt 0.274725 0.500000
vt 0.375000 0.399725
vt 0.625000 0.850275
vt 0.725275 0.750000
vt 0.274725 0.750000
vt 0.375000 0.850275
vt 0.625000 0.399725
vt 0.725275 0.500000
vt 0.274725 0.600962
vt 0.725275 0.600962
vt 0.274725 0.649738
vt 0.725275 0.649738
vt 0.375000 0.350275
vt 0.225275 0.500000
vt 0.625000 0.899725
vt 0.774725 0.750000
vt 0.225275 0.600962
vt 0.225275 0.649738
vt 0.225275 0.750000
vt 0.375000 0.899725
vt 0.625000 0.350275
vt 0.774725 0.500000
vt 0.774725 0.600962
vt 0.774725 0.649738
s 0
g off
g Cube.001_Material.001
usemtl Material.001
f 45/71/9 47/74/9 43/68/9 41/65/9
f 44/70/11 42/67/11 46/73/11 48/76/11
f 53/85/10 44/70/10 48/76/10 55/87/10
f 63/99/7 43/69/7 47/75/7 64/100/7
f 42/67/7 54/86/7 56/88/7 46/73/7
f 59/93/10 53/85/10 55/87/10 60/94/10
f 57/90/10 49/77/10 53/85/10 59/93/10
f 57/89/12 62/97/12 52/83/12 49/78/12
f 60/94/10 55/87/10 51/81/10 61/95/10
f 41/66/10 59/93/10 60/94/10 45/72/10
f 54/86/7 63/99/7 64/100/7 56/88/7
f 52/84/7 62/98/7 63/99/7 54/86/7
f 51/82/8 50/79/8 58/91/8 61/96/8
f 56/88/7 64/100/7 58/92/7 50/80/7
g Cube.001_Material.002
usemtl Material.002
f 64/100/7 47/75/7 39/59/7 58/92/7
f 61/96/8 58/91/8 39/60/8 40/62/8
f 41/65/9 43/68/9 37/56/9 38/57/9
f 55/87/10 48/76/10 36/54/10 51/81/10
f 48/76/11 46/73/11 35/53/11 36/54/11
f 49/78/12 52/83/12 33/51/12 34/52/12
f 34/52/11 33/51/11 42/67/11 44/70/11
f 49/77/10 34/52/10 44/70/10 53/85/10
f 62/98/7 37/55/7 43/69/7 63/99/7
f 40/63/9 39/61/9 47/74/9 45/71/9
f 33/51/7 52/84/7 54/86/7 42/67/7
f 36/54/8 35/53/8 50/79/8 51/82/8
f 46/73/7 56/88/7 50/80/7 35/53/7
f 45/72/10 60/94/10 61/95/10 40/64/10
f 38/57/12 37/56/12 62/97/12 57/89/12
f 38/58/10 57/90/10 59/93/10 41/66/10
g Cube.003_Cube.003
v 0.634087 3.025135 -1.073589
v 0.634087 1.025135 -1.073589
v 0.634087 3.025135 0.926411
v 0.634087 1.025135 0.926411
v -1.365913 3.025135 -1.073589
v -1.365913 1.025135 -1.073589
v -1.365913 3.025135 0.926411
v -1.365913 1.025135 0.926411
v -1.365913 1.025135 -0.265897
v 0.634087 3.025135 -0.265897
v -1.365913 3.025135 -0.265897
v 0.634087 1.025135 -0.265897
v -1.365913 1.025135 0.124313
v 0.634087 3.025135 0.124313
v -1.365913 3.025135 0.124313
v 0.634087 1.025135 0.124313
v -0.168111 1.025135 -1.073589
v -0.168111 3.025135 0.926411
v -0.168111 1.025135 0.926411
v -0.168111 3.025135 -1.073589
v -0.168111 1.025135 -0.265897
v -0.168111 3.025135 -0.265897
v -0.168111 1.025135 0.124313
v -0.168111 3.025135 0.124313
v -0.563715 1.025135 -1.073589
v -0.563715 3.025135 0.926411
v -0.563715 1.025135 -0.265897
v -0.563715 1.025135 0.124313
v -0.563715 1.025135 0.926411
v -0.563715 3.025135 -1.073589
v -0.563715 3.025135 -0.265897
v -0.563715 3.025135 0.124313
vn -0.0000 1.0000 -0.0000
vn -0.0000 -0.0000 1.0000
vn -1.0000 -0.0000 -0.0000
vn -0.0000 -1.0000 -0.0000
vn 1.0000 -0.0000 -0.0000
vn -0.0000 -0.0000 -1.0000
vt 0.625000 0.500000
vt 0.375000 0.500000
vt 0.625000 0.750000
vt 0.375000 0.750000
vt 0.875000 0.500000
vt 0.625000 0.250000
vt 0.375000 0.250000
vt 0.125000 0.500000
vt 0.875000 0.750000
vt 0.625000 1.000000
vt 0.625000 0.000000
vt 0.375000 1.000000
vt 0.375000 0.000000
vt 0.125000 0.750000
vt 0.375000 0.149038
vt 0.125000 0.600962
vt 0.625000 0.600962
vt 0.625000 0.149038
vt 0.875000 0.600962
vt 0.375000 0.600962
vt 0.375000 0.100262
vt 0.125000 0.649738
vt 0.625000 0.649738
vt 0.625000 0.100262
vt 0.875000 0.649738
vt 0.375000 0.649738
vt 0.274725 0.500000
vt 0.375000 0.399725
vt 0.625000 0.850275
vt 0.725275 0.750000
vt 0.274725 0.750000
vt 0.375000 0.850275
vt 0.625000 0.399725
vt 0.725275 0.500000
vt 0.274725 0.600962
vt 0.725275 0.600962
vt 0.274725 0.649738
vt 0.725275 0.649738
vt 0.375000 0.350275
vt 0.225275 0.500000
vt 0.625000 0.899725
vt 0.774725 0.750000
vt 0.225275 0.600962
vt 0.225275 0.649738
vt 0.225275 0.750000
vt 0.375000 0.899725
vt 0.625000 0.350275
vt 0.774725 0.500000
vt 0.774725 0.600962
vt 0.774725 0.649738
s 0
g off
g Cube.003_Material.001
usemtl Material.001
f 77/121/15 79/124/15 75/118/15 73/115/15
f 76/120/17 74/117/17 78/123/17 80/126/17
f 85/135/16 76/120/16 80/126/16 87/137/16
f 95/149/13 75/119/13 79/125/13 96/150/13
f 74/117/13 86/136/13 88/138/13 78/123/13
f 91/143/16 85/135/16 87/137/16 92/144/16
f 89/140/16 81/127/16 85/135/16 91/143/16
f 89/139/18 94/147/18 84/133/18 81/128/18
f 92/144/16 87/137/16 83/131/16 93/145/16
f 73/116/16 91/143/16 92/144/16 77/122/16
f 86/136/13 95/149/13 96/150/13 88/138/13
f 84/134/13 94/148/13 95/149/13 86/136/13
f 83/132/14 82/129/14 90/141/14 93/146/14
f 88/138/13 96/150/13 90/142/13 82/130/13
g Cube.003_Material.003
usemtl Material.003
f 96/150/13 79/125/13 71/109/13 90/142/13
f 93/146/14 90/141/14 71/110/14 72/112/14
f 73/115/15 75/118/15 69/106/15 70/107/15
f 87/137/16 80/126/16 68/104/16 83/131/16
f 80/126/17 78/123/17 67/103/17 68/104/17
f 81/128/18 84/133/18 65/101/18 66/102/18
f 66/102/17 65/101/17 74/117/17 76/120/17
f 81/127/16 66/102/16 76/120/16 85/135/16
f 94/148/13 69/105/13 75/119/13 95/149/13
f 72/113/15 71/111/15 79/124/15 77/121/15
f 65/101/13 84/134/13 86/136/13 74/117/13
f 68/104/14 67/103/14 82/129/14 83/132/14
f 78/123/13 88/138/13 82/130/13 67/103/13
f 77/122/16 92/144/16 93/145/16 72/114/16
f 70/107/18 69/106/18 94/147/18 89/139/18
f 70/108/16 89/140/16 91/143/16 73/116/16
